:SAMPLES-PER-SECOND 30
:FRAME-RANGE 1-1390
:FULLY-SPECIFIED
:DEGREES
478
root  -29.1649 37.1509 -33.1053 -8.63001 1.16116 -4.52019
RightUpLeg  -4.89494 -5.99324 12.345
RightLeg  36.7022 -7.629 -6.33259
RightFoot  -22.1227 -0.550603 -4.24659
RightToes  -2.9104e-010 0 -3.6325e-017
Spine  16.5219 -3.06759 -5.80983
Spine1  -0.0884751 -7.91633 8.1248
HEad  -0.484265 7.66498 -0.517284
LeftShoulder1  3.52531 -5.08943 -34.9994
LeftArm  86.1372 -32.4702 -79.5258
LeftForeArm  -5.67213 -18.5618 -10.6503
LeftHand  -0.0163381 3.33984 -0.109098
RightShoulder  12.0658 19.3139 46.1792
RightArm  40.032 6.62131 25.7705
RightForeArm  24.6515 25.6873 4.19712
RightHand  0.813367 5.40954 8.39626
LeftUpLeg  -91.5954 28.3997 -73.8814
LeftLeg  126.235 -1.13636 0.976116
LeftFoot  4.83674 1.25707 -9.03893
LeftToes  5.45371e-012 -1.3743e-010 1.09575e-010
479
root  -29.222 38.1296 -32.0643 -8.4632 2.1433 -2.8951
RightUpLeg  -1.27909 -7.06826 9.97587
RightLeg  32.0261 -7.24643 -5.11076
RightFoot  -17.9995 -0.245001 -2.11938
RightToes  -2.9104e-010 0 -3.6325e-017
Spine  15.6197 -2.5946 -6.76587
Spine1  -1.04132 -7.16491 6.67112
HEad  1.88 5.26445 0.111759
LeftShoulder1  3.48716 -5.04171 -34.7854
LeftArm  91.4707 -30.7362 -78.8157
LeftForeArm  -11.4421 -20.0681 -9.20805
LeftHand  0.00585959 2.82256 -0.991902
RightShoulder  11.3355 17.9946 46.0634
RightArm  40.0747 4.98019 26.2654
RightForeArm  23.5139 26.4913 4.43251
RightHand  0.860963 5.1746 9.11633
LeftUpLeg  -91.73 27.754 -75.0451
LeftLeg  127.423 -3.19882 3.43093
LeftFoot  7.35064 1.43576 -8.98344
LeftToes  5.45371e-012 -1.3743e-010 1.09575e-010
480
root  -29.1831 39.1023 -31.0725 -8.59429 2.44129 -1.45548
RightUpLeg  0.978543 -8.06516 7.50876
RightLeg  30.0863 -6.02982 -4.00562
RightFoot  -12.0115 -0.0727914 1.46817
RightToes  -2.9104e-010 0 -3.6325e-017
Spine  14.7583 -2.01379 -6.68115
Spine1  -1.47998 -6.1745 4.84797
HEad  4.64132 3.5427 -0.231273
LeftShoulder1  3.45983 -5.05976 -34.3865
LeftArm  91.2659 -30.006 -79.0861
LeftForeArm  -10.6592 -20.0077 -9.23225
LeftHand  0.0241425 2.56657 -1.61272
RightShoulder  11.1972 17.7019 46.1362
RightArm  41.2537 3.55558 26.3167
RightForeArm  20.3605 26.3277 4.56644
RightHand  0.901756 5.07477 9.65806
LeftUpLeg  -91.8473 27.086 -75.0324
LeftLeg  128.445 -5.81688 6.34331
LeftFoot  9.08365 1.2101 -7.01984
LeftToes  5.45371e-012 -1.3743e-010 1.09575e-010
481
root  -28.9154 39.9509 -30.2797 -9.02363 2.96022 -0.375909
RightUpLeg  0.732871 -7.91628 5.50317
RightLeg  32.1626 -6.44834 -4.6009
RightFoot  -4.34563 -0.409468 6.20747
RightToes  -2.9104e-010 0 -3.6325e-017
Spine  15.0071 -1.89977 -6.39487
Spine1  -1.62696 -5.70876 4.23529
HEad  7.11491 3.21331 -1.20781
LeftShoulder1  3.43001 -5.0642 -34.022
LeftArm  90.9404 -29.8487 -79.4153
LeftForeArm  -9.56626 -19.8498 -9.35687
LeftHand  0.0340881 2.46913 -1.94118
RightShoulder  11.3472 18.0278 46.0386
RightArm  43.1997 3.42697 26.7344
RightForeArm  17.7928 25.3771 4.4965
RightHand  0.930777 5.10795 9.9434
LeftUpLeg  -91.482 26.3157 -74.4239
LeftLeg  128.185 -7.90332 8.81522
LeftFoot  10.0959 1.15408 -6.41944
LeftToes  5.45371e-012 -1.3743e-010 1.09575e-010
482
root  -28.7119 40.4189 -29.5445 -9.15686 3.22164 0.295665
RightUpLeg  -2.52704 -6.75199 5.19307
RightLeg  38.2004 -9.01884 -7.80489
RightFoot  2.95568 -0.24237 2.09279
RightToes  -2.9104e-010 0 -3.6325e-017
Spine  15.8223 -1.76912 -6.09256
Spine1  -2.34052 -5.52628 4.07669
HEad  8.31575 3.49786 -2.11791
LeftShoulder1  3.39001 -5.04332 -33.6552
LeftArm  95.9016 -29.541 -79.5168
LeftForeArm  -14.9866 -21.078 -8.19143
LeftHand  0.0411056 2.45699 -2.21543
RightShoulder  11.415 18.164 46.0199
RightArm  43.4557 3.85812 26.8352
RightForeArm  17.6689 24.8953 4.39867
RightHand  0.973498 5.42157 10.0905
LeftUpLeg  -92.0454 25.699 -74.8707
LeftLeg  127.507 -9.23602 10.5858
LeftFoot  9.48357 1.02424 -5.88656
LeftToes  5.45371e-012 -1.3743e-010 1.09575e-010
483
root  -28.5746 40.4764 -28.8157 -8.76823 3.95632 0.65089
RightUpLeg  -5.53096 -4.68398 5.72082
RightLeg  40.3738 -10.1623 -9.40761
RightFoot  0.973693 0.222239 -1.99707
RightToes  -2.9104e-010 0 -3.6325e-017
Spine  16.3638 -1.87356 -6.19688
Spine1  -2.72462 -5.83944 4.50141
HEad  7.83294 3.76259 -2.70948
LeftShoulder1  3.3634 -4.99496 -33.5682
LeftArm  96.3299 -29.8508 -79.8699
LeftForeArm  -16.0421 -21.1294 -8.1996
LeftHand  0.0368234 2.60034 -2.18427
RightShoulder  11.3118 18.0983 45.7337
RightArm  42.618 4.49759 26.7953
RightForeArm  18.6728 24.9605 4.35915
RightHand  0.993575 5.69876 10.0303
LeftUpLeg  -92.3337 25.1216 -75.7403
LeftLeg  126.724 -8.55017 10.0664
LeftFoot  8.34426 1.06564 -6.43183
LeftToes  5.45371e-012 -1.3743e-010 1.09575e-010
484
root  -28.52 40.2212 -28.0806 -8.49957 5.2453 -0.0903104
RightUpLeg  -6.97593 -2.34857 7.47971
RightLeg  35.617 -9.8571 -7.76036
RightFoot  -4.54353 -0.0896287 0.988768
RightToes  -2.9104e-010 0 -3.6325e-017
Spine  17.2272 -2.23128 -5.96667
Spine1  -2.83296 -6.58116 5.53586
HEad  6.20715 4.14735 -2.91577
LeftShoulder1  3.37067 -4.98855 -33.6827
LeftArm  93.2024 -30.7443 -80.35
LeftForeArm  -13.0754 -20.2579 -9.08003
LeftHand  0.02203 2.96398 -1.89295
RightShoulder  11.4038 18.3662 45.5289
RightArm  41.6454 5.24111 26.6139
RightForeArm  20.2551 25.2108 4.32865
RightHand  0.945638 5.75191 9.4848
LeftUpLeg  -92.3324 25.6028 -75.5933
LeftLeg  126.226 -7.05372 8.4134
LeftFoot  7.8962 1.30157 -7.95601
LeftToes  5.45371e-012 -1.3743e-010 1.09575e-010
485
root  -28.4432 39.5572 -27.4231 -7.98108 6.39385 -0.610419
RightUpLeg  -8.05421 0.569235 8.96915
RightLeg  27.513 -11.0646 -6.41861
RightFoot  -8.1841 -0.188198 4.80661
RightToes  -2.9104e-010 0 -3.6325e-017
Spine  17.7898 -2.4846 -5.83319
Spine1  -2.4304 -7.03606 6.12658
HEad  4.41844 4.08989 -2.54389
LeftShoulder1  3.43361 -5.19581 -33.4637
LeftArm  90.8781 -31.8278 -80.9613
LeftForeArm  -11.0706 -19.632 -9.71777
LeftHand  0.0159316 3.21228 -1.85754
RightShoulder  11.6032 18.8411 45.3246
RightArm  40.8271 5.89636 26.4957
RightForeArm  21.4569 25.2012 4.26249
RightHand  0.952486 5.90442 9.41774
LeftUpLeg  -92.4188 26.0477 -75.9519
LeftLeg  125.545 -6.21569 7.56148
LeftFoot  7.7295 1.47164 -9.02868
LeftToes  5.45371e-012 -1.3743e-010 1.09575e-010
486
root  -28.4425 38.5752 -26.6829 -7.72192 7.33113 -0.936816
RightUpLeg  -9.23595 -0.513611 10.6577
RightLeg  22.1242 -9.62894 -4.49603
RightFoot  -6.77816 0.135982 -4.55825
RightToes  -2.9104e-010 0 -3.6325e-017
Spine  18.3969 -2.51162 -5.2666
Spine1  -2.51885 -7.09984 5.77547
HEad  3.06101 3.46002 -2.09441
LeftShoulder1  3.47637 -5.29441 -33.5077
LeftArm  87.1649 -32.4405 -81.1856
LeftForeArm  -7.4609 -18.6639 -10.6395
LeftHand  0.0121263 3.36674 -1.83017
RightShoulder  11.7419 19.0458 45.4521
RightArm  40.5776 5.78211 26.1081
RightForeArm  21.4747 25.3874 4.30167
RightHand  0.963271 5.88744 9.54288
LeftUpLeg  -92.2168 26.8105 -75.2409
LeftLeg  125.538 -5.58972 6.76522
LeftFoot  8.46372 1.7376 -10.2296
LeftToes  5.45371e-012 -1.3743e-010 1.09575e-010
487
root  -28.4181 37.2304 -25.8791 -8.60037 8.15514 -2.1579
RightUpLeg  -13.4762 0.410572 13.06
RightLeg  34.5737 -11.7084 -8.80796
RightFoot  -13.2103 -0.207147 -7.22468
RightToes  -2.9104e-010 0 -3.6325e-017
Spine  19.6059 -2.41436 -3.47425
Spine1  -2.04482 -6.73565 5.49275
HEad  0.912458 2.24591 -2.07702
LeftShoulder1  3.47028 -5.23079 -33.7236
LeftArm  86.0124 -32.744 -81.4819
LeftForeArm  -5.04045 -18.295 -10.9158
LeftHand  0.000915233 3.49673 -1.28695
RightShoulder  11.9372 19.2602 45.7815
RightArm  40.7084 5.57778 25.3905
RightForeArm  19.8045 25.712 4.4615
RightHand  0.77842 4.94432 8.41408
LeftUpLeg  -91.4344 27.4388 -72.5489
LeftLeg  126.259 -5.25107 6.16519
LeftFoot  9.72986 1.58121 -8.81002
LeftToes  5.45371e-012 -1.3743e-010 1.09575e-010
488
root  -28.3851 36.0106 -25.1153 -9.49722 8.0096 -3.66886
RightUpLeg  -16.1127 -0.647349 15.1923
RightLeg  43.8285 -10.3489 -10.7643
RightFoot  -18.6295 -0.560918 -6.82188
RightToes  -2.9104e-010 0 -3.6325e-017
Spine  19.0281 -2.55018 -1.24572
Spine1  0.442044 -6.4089 4.33625
HEad  -1.62638 2.22826 -2.63444
LeftShoulder1  3.43842 -4.90276 -34.8776
LeftArm  93.5585 -32.5895 -79.7491
LeftForeArm  -13.2231 -20.2871 -9.05365
LeftHand  -0.0193162 3.21582 0.101022
RightShoulder  12.9281 20.2028 47.6487
RightArm  39.5697 7.4084 23.7058
RightForeArm  18.3342 24.0897 4.19068
RightHand  0.902872 5.14213 9.60432
LeftUpLeg  -91.7658 27.7377 -70.3829
LeftLeg  125.612 -8.36921 10.253
LeftFoot  11.5321 0.268787 -1.67802
LeftToes  5.45371e-012 -1.3743e-010 1.09575e-010
489
root  -28.3479 35.3462 -24.2379 -10.569 9.26089 -4.14857
RightUpLeg  -15.8871 -2.573 15.8911
RightLeg  48.403 -9.93252 -12.1011
RightFoot  -22.7866 -0.818229 -6.61812
RightToes  -2.9104e-010 0 -3.6325e-017
Spine  19.3456 -2.74231 -2.01348
Spine1  1.0326 -6.95982 5.72273
HEad  -1.37695 2.88732 -3.2444
LeftShoulder1  3.41657 -4.82454 -34.9967
LeftArm  94.8495 -32.8599 -79.4769
LeftForeArm  -16.4393 -20.5833 -8.90226
LeftHand  -0.0182903 2.99357 0.100502
RightShoulder  12.6881 19.908 47.3516
RightArm  36.8041 8.68581 23.8581
RightForeArm  18.2195 24.5845 4.30244
RightHand  1.06211 5.68305 10.7562
LeftUpLeg  -91.812 28.5494 -71.0853
LeftLeg  123.698 -12.3021 16.086
LeftFoot  9.55285 -0.503297 2.41284
LeftToes  5.45371e-012 -1.3743e-010 1.09575e-010
490
root  -28.3587 35.1726 -23.3659 -11.2234 10.1311 -4.69637
RightUpLeg  -14.2904 -2.75512 16.7911
RightLeg  49.4807 -10.5404 -13.2656
RightFoot  -24.7199 -0.857033 -5.87418
RightToes  -2.9104e-010 0 -3.6325e-017
Spine  19.211 -2.73719 -2.08888
Spine1  0.21357 -6.92468 6.00308
HEad  1.11733 2.77794 -2.87886
LeftShoulder1  3.4248 -4.83114 -35.0618
LeftArm  86.125 -34.8867 -80.5205
LeftForeArm  -6.40679 -18.2295 -11.069
LeftHand  -0.0164323 3.90225 -0.402761
RightShoulder  12.6662 19.8459 47.3978
RightArm  38.1425 8.56473 23.9549
RightForeArm  22.0962 25.4604 4.28427
RightHand  0.944512 5.71333 9.50833
LeftUpLeg  -92.6565 28.3069 -71.6159
LeftLeg  124.494 -7.27675 9.25506
LeftFoot  6.9323 0.18384 -1.40566
LeftToes  5.45371e-012 -1.3743e-010 1.09575e-010
491
root  -28.4303 35.6164 -22.4357 -11.2986 11.3032 -4.10946
RightUpLeg  -11.0648 -3.72398 16.1571
RightLeg  46.5041 -11.3045 -12.7928
RightFoot  -25.0176 -0.844557 -5.62466
RightToes  -2.9104e-010 0 -3.6325e-017
Spine  17.8679 -2.65161 -3.86362
Spine1  0.765386 -7.1348 6.59612
HEad  2.8319 2.72494 -2.19866
LeftShoulder1  3.45807 -4.94487 -34.9061
LeftArm  84.7534 -34.4732 -79.8381
LeftForeArm  -5.13757 -17.9835 -11.267
LeftHand  -0.021342 4.09433 -0.0927525
RightShoulder  13.1231 20.5165 47.7317
RightArm  39.1179 8.04182 24.366
RightForeArm  24.1588 24.7573 4.02444
RightHand  0.846798 5.7641 8.45385
LeftUpLeg  -92.919 28.3496 -72.1656
LeftLeg  125.222 -2.43674 2.73065
LeftFoot  4.80513 0.827534 -6.03731
LeftToes  5.45371e-012 -1.3743e-010 1.09575e-010
492
root  -28.5605 36.4759 -21.4442 -11.0954 12.5958 -3.09035
RightUpLeg  -6.42129 -5.12955 14.7766
RightLeg  40.1222 -11.8001 -10.739
RightFoot  -23.4872 -0.800933 -6.02769
RightToes  -2.9104e-010 0 -3.6325e-017
Spine  16.4104 -2.41977 -5.28225
Spine1  0.468057 -6.88279 6.16686
HEad  5.42854 1.57238 -1.51191
LeftShoulder1  3.43023 -4.84678 -35.0502
LeftArm  86.8726 -32.8617 -78.6565
LeftForeArm  -6.68426 -18.6869 -10.5665
LeftHand  -0.01715 3.60777 -0.171375
RightShoulder  12.7201 19.591 48.1434
RightArm  40.565 7.3523 25.1116
RightForeArm  22.2038 24.5042 4.07392
RightHand  0.916429 5.71445 9.2164
LeftUpLeg  -92.9043 28.2482 -72.7853
LeftLeg  126.518 -2.55177 2.74038
LeftFoot  4.79585 1.08197 -7.83036
LeftToes  5.45371e-012 -1.3743e-010 1.09575e-010
